# xmcd CD database file generated by MAGIX_Freedb v0.9beta0
# 
# Track frame offsets:
#      150
#      18157
#      35447
#      53387
#      76142
#      96450
#      117980
#      134842
#      158145
#      180695
# 
# Disc length: 2810 seconds
# 
# Revision: 3 
# Processed by: cddbd v1.5PL3 Copyright (c) Steve Scherf et al.
# Submitted via: MAGIX_Freedb v0.9beta0
# 
DISCID=7a0af80a
DTITLE=Coco Montoya - Gotta A Mind To Travel
DYEAR=1994
DGENRE=Blues
TTITLE0=Coco Montoya - Too Much Water
TTITLE1=Gotta A Mind To Travel
TTITLE2=Talkin' Woman Blues
TTITLE3=Someday After Awhile
TTITLE4=Top Of The Hill
TTITLE5=Same Dog
TTITLE6=Love Jail
TTITLE7=You Don't Love Me
TTITLE8=Nothin' In The Streets
TTITLE9=Am I Losing You
EXTD=YEAR: 1994
EXTT0=
EXTT1=
EXTT2=
EXTT3=
EXTT4=
EXTT5=
EXTT6=
EXTT7=
EXTT8=
EXTT9=
PLAYORDER=
